HIERARCHY
ROOT reference
{
  OFFSET 0 0 0
  CHANNELS 6 Xposition Yposition Zposition Zrotation Xrotation Yrotation
  JOINT Hips
  {
    OFFSET 26.8642 69.0869 116.64
    CHANNELS 6 Xposition Yposition Zposition Zrotation Xrotation Yrotation
    JOINT Spine
    {
      OFFSET 0 7.3847 0
      CHANNELS 6 Xposition Yposition Zposition Zrotation Xrotation Yrotation
      JOINT Spine1
      {
        OFFSET 0 22.52 0
        CHANNELS 6 Xposition Yposition Zposition Zrotation Xrotation Yrotation
        JOINT Neck
        {
          OFFSET 0 22.4276 2.03887
          CHANNELS 6 Xposition Yposition Zposition Zrotation Xrotation Yrotation
          JOINT Head
          {
            OFFSET 0 12.608 -1.80115
            CHANNELS 6 Xposition Yposition Zposition Zrotation Xrotation Yrotation
            End Site
            {
              OFFSET 0 22.5143 0
            }
          }
        }
        JOINT LeftShoulder
        {
          OFFSET 3.70204 19.5563 -0.329131
          CHANNELS 6 Xposition Yposition Zposition Zrotation Xrotation Yrotation
          JOINT LeftArm
          {
            OFFSET 13.7086 0 0
            CHANNELS 6 Xposition Yposition Zposition Zrotation Xrotation Yrotation
            JOINT LeftForeArm
            {
              OFFSET 25.9307 0 0
              CHANNELS 6 Xposition Yposition Zposition Zrotation Xrotation Yrotation
              JOINT LeftHand
              {
                OFFSET 23.5097 0 0
                CHANNELS 6 Xposition Yposition Zposition Zrotation Xrotation Yrotation
                End Site
                {
                  OFFSET 13.5086 0 0
                }
              }
            }
          }
        }
        JOINT RightShoulder
        {
          OFFSET -3.48695 19.5563 -0.329131
          CHANNELS 6 Xposition Yposition Zposition Zrotation Xrotation Yrotation
          JOINT RightArm
          {
            OFFSET -13.7086 0 0
            CHANNELS 6 Xposition Yposition Zposition Zrotation Xrotation Yrotation
            JOINT RightForeArm
            {
              OFFSET -25.9307 0 0
              CHANNELS 6 Xposition Yposition Zposition Zrotation Xrotation Yrotation
              JOINT RightHand
              {
                OFFSET -23.5097 0 0
                CHANNELS 6 Xposition Yposition Zposition Zrotation Xrotation Yrotation
                End Site
                {
                  OFFSET -13.5086 0 0
                }
              }
            }
          }
        }
      }
    }
    JOINT LeftUpLeg
    {
      OFFSET 9.00574 0 0
      CHANNELS 6 Xposition Yposition Zposition Zrotation Xrotation Yrotation
      JOINT LeftLeg
      {
        OFFSET 0 -37.3387 0
        CHANNELS 6 Xposition Yposition Zposition Zrotation Xrotation Yrotation
        JOINT LeftFoot
        {
          OFFSET 0 -36.155 0
          CHANNELS 6 Xposition Yposition Zposition Zrotation Xrotation Yrotation
          JOINT LeftToeBase
          {
            OFFSET 0 -5.85373 13.5086
            CHANNELS 6 Xposition Yposition Zposition Zrotation Xrotation Yrotation
            End Site
            {
              OFFSET 0 0 3.60229
            }
          }
        }
      }
    }
    JOINT RightUpLeg
    {
      OFFSET -9.00574 0 0
      CHANNELS 6 Xposition Yposition Zposition Zrotation Xrotation Yrotation
      JOINT RightLeg
      {
        OFFSET 0 -37.3387 0
        CHANNELS 6 Xposition Yposition Zposition Zrotation Xrotation Yrotation
        JOINT RightFoot
        {
          OFFSET 0 -36.155 0
          CHANNELS 6 Xposition Yposition Zposition Zrotation Xrotation Yrotation
          JOINT RightToeBase
          {
            OFFSET 0 -5.85373 13.5086
            CHANNELS 6 Xposition Yposition Zposition Zrotation Xrotation Yrotation
            End Site
            {
              OFFSET 0 0 3.60229
            }
          }
        }
      }
    }
  }
}
MOTION
Frames:	10
Frame Time:	0.00833333
0 0 0 0 0 -0 11.5705 82.805 -97.444 -2.04367 5.89807 11.3559 0 7.3847 0 -2.89768 -0.0435982 -2.59991 0 22.52 0 3.55448 7.12171 -2.82001 -3.55271e-015 22.4276 2.03887 4.59244 15.045 -3.08224 0 12.608 -1.80115 -1.45769 -14.6631 -3.64691 3.70204 19.5563 -0.329131 2.52601 9.29771 -9.15869 13.7086 -1.42109e-014 0 -64.3039 44.6853 -11.0287 25.9307 -7.10543e-015 -1.42109e-014 15.8891 -27.5946 -109.063 23.5097 -7.10543e-015 0 -11.1876 -5.91797 -0.603734 -3.48695 19.5563 -0.329131 3.08008 10.2399 -0.634671 -13.7086 0 0 41.2724 25.9032 28.5075 -25.9307 -7.10543e-015 0 4.65267 -0.707351 112.698 -23.5097 -7.10543e-015 0 -22.9559 -8.08946 2.00176 9.00574 0 0 2.31921 -18.0031 7.64157 0 -37.3387 0 -1.82246 29.8514 11.4168 0 -36.155 0 2.29179 15.9517 -15.6898 0 -5.85373 13.5086 1.59028e-015 0 3.18055e-015 -9.00574 0 0 -12.0001 -30.5108 -11.5973 0 -37.3387 -7.10543e-015 27.5106 70.032 -23.2431 8.88178e-016 -36.155 -1.42109e-014 17.6618 15.2304 -10.8381 0 -5.85373 13.5086 3.18055e-015 -6.36111e-015 1.59028e-015 
0 0 0 0 0 -0 11.4879 83.4589 -96.9686 -2.37753 5.97964 11.7753 3.55271e-015 7.3847 0 -2.63862 -0.0872175 -2.74755 -3.55271e-015 22.52 0 3.55121 6.66087 -2.9522 0 22.4276 2.03887 4.52043 15.4965 -3.15032 -3.55271e-015 12.608 -1.80115 -1.25431 -14.3773 -3.6406 3.70204 19.5563 -0.329131 2.61373 9.43205 -8.87339 13.7086 -1.42109e-014 2.84217e-014 -64.3383 44.78 -11.0032 25.9307 -7.10543e-015 0 15.9825 -27.4857 -109.065 23.5097 7.10543e-015 0 -10.7796 -5.6887 -0.283976 -3.48695 19.5563 -0.329131 3.09741 10.3719 -0.794506 -13.7086 0 0 41.2337 26.121 28.4966 -25.9307 -7.10543e-015 0 4.75311 -0.641725 112.453 -23.5097 0 0 -22.8636 -8.16578 2.13048 9.00574 1.42109e-014 0 2.60485 -17.2958 7.22904 7.10543e-015 -37.3387 0 -1.88878 28.2443 11.8768 0 -36.155 1.42109e-014 2.8222 18.3029 -16.0078 0 -5.85373 13.5086 -1.59028e-015 -3.18055e-015 -0 -9.00574 0 0 -11.7638 -30.9148 -11.8252 8.88178e-016 -37.3387 -7.10543e-015 26.8677 68.6443 -22.7081 -4.44089e-016 -36.155 -1.42109e-014 18.0219 15.7637 -11.3765 0 -5.85373 13.5086 -0 0 1.59028e-015 
0 0 0 0 0 -0 11.4084 84.0858 -96.4555 -2.71735 6.0263 12.1271 0 7.3847 0 -2.44937 -0.303114 -2.79678 3.55271e-015 22.52 0 3.69543 6.49065 -2.99987 0 22.4276 2.03887 4.54249 15.9383 -3.2728 0 12.608 -1.80115 -1.26565 -14.2154 -3.75037 3.70204 19.5563 -0.329131 2.59149 9.45841 -8.79865 13.7086 -1.42109e-014 2.84217e-014 -64.34 44.7362 -10.9485 25.9307 1.42109e-014 0 15.7833 -27.0819 -109.103 23.5097 0 0 -10.2531 -5.52406 -0.196127 -3.48695 19.5563 -0.329131 3.10293 10.4217 -1.01525 -13.7086 -1.42109e-014 0 41.2222 26.1364 28.4278 -25.9307 0 0 4.92112 -0.326551 112.236 -23.5097 -7.10543e-015 2.84217e-014 -22.9966 -8.09378 2.21359 9.00574 1.42109e-014 -1.42109e-014 2.9534 -16.5215 6.97265 0 -37.3387 -1.42109e-014 -1.9443 26.6482 12.0976 0 -36.155 -1.42109e-014 3.32343 20.5757 -16.1039 0 -5.85373 13.5086 1.59028e-015 0 -0 -9.00574 0 -1.42109e-014 -11.4613 -31.2494 -11.9272 0 -37.3387 -7.10543e-015 26.2191 67.1947 -22.1663 -4.44089e-016 -36.155 0 18.3408 16.1905 -11.8719 0 -5.85373 13.5086 -0 0 1.59028e-015 
0 0 0 0 0 -0 11.3251 84.6683 -95.9509 -3.04598 6.03127 12.4719 -3.55271e-015 7.3847 0 -2.21694 -0.364694 -2.8799 0 22.52 1.42109e-014 3.76101 6.15782 -3.07518 0 22.4276 2.03887 4.41474 16.4363 -3.36963 0 12.608 -1.80115 -1.00523 -14.0695 -3.76031 3.70204 19.5563 -0.329131 2.6279 9.56953 -8.56838 13.7086 0 0 -64.4495 44.8109 -10.8568 25.9307 1.42109e-014 1.42109e-014 15.6871 -26.9891 -109.115 23.5097 -7.10543e-015 0 -10.3903 -5.56349 -0.129145 -3.48695 19.5563 -0.329131 3.08749 10.5367 -1.2086 -13.7086 0 0 41.1856 26.3163 28.4558 -25.9307 0 0 5.21082 -0.0860101 111.936 -23.5097 7.10543e-015 0 -23.2146 -8.27465 2.35384 9.00574 0 1.42109e-014 3.31136 -15.7911 6.82633 0 -37.3387 0 -1.91972 25.1326 12.8384 0 -36.155 1.42109e-014 4.14645 22.8307 -16.7804 0 -5.85373 13.5086 3.18055e-015 6.36111e-015 -0 -9.00574 1.42109e-014 0 -11.1627 -31.5361 -11.9386 8.88178e-016 -37.3387 0 25.8034 65.6679 -22.2324 -4.44089e-016 -36.155 1.42109e-014 18.4057 16.78 -12.0037 0 -5.85373 13.5086 -1.76556e-031 -6.36111e-015 -1.59028e-015 
0 0 0 0 0 -0 11.2425 85.2242 -95.4418 -3.33796 6.06059 12.8133 0 7.3847 1.42109e-014 -2.05316 -0.482462 -2.93895 0 22.52 0 3.8753 5.87341 -3.12916 0 22.4276 2.03887 4.32115 16.8426 -3.4843 -3.55271e-015 12.608 -1.80115 -0.833805 -13.7572 -3.81616 3.70204 19.5563 -0.329131 2.65064 9.62727 -8.4146 13.7086 0 0 -64.4559 44.8531 -10.881 25.9307 7.10543e-015 0 15.6106 -26.9092 -109.077 23.5097 -7.10543e-015 1.42109e-014 -10.6033 -5.60482 -0.111363 -3.48695 19.5563 -0.329131 3.08938 10.6757 -1.40365 -13.7086 1.42109e-014 0 41.14 26.4828 28.4654 -25.9307 0 0 5.26075 -0.0760864 111.724 -23.5097 0 0 -23.1211 -8.30153 2.33485 9.00574 0 0 3.63808 -15.1141 6.73211 0 -37.3387 1.42109e-014 -1.86102 23.6606 13.456 0 -36.155 0 4.97273 25.1549 -17.5921 0 -5.85373 13.5086 0 3.18055e-015 -0 -9.00574 0 1.42109e-014 -10.9124 -31.8255 -11.9329 -1.77636e-015 -37.3387 1.42109e-014 25.3251 64.1589 -21.8844 0 -36.155 0 19.0408 16.8814 -12.6044 -7.10543e-015 -5.85373 13.5086 9.54166e-015 -3.18055e-015 1.59028e-015 
0 0 0 0 0 -0 11.1645 85.7298 -94.9436 -3.60241 6.07007 13.138 -3.55271e-015 7.3847 -1.42109e-014 -1.90572 -0.61304 -2.99685 -3.55271e-015 22.52 1.42109e-014 3.98176 5.66497 -3.18371 3.55271e-015 22.4276 2.03887 4.28438 17.3338 -3.5963 -3.55271e-015 12.608 -1.80115 -0.750322 -13.6632 -3.89068 3.70204 19.5563 -0.329131 2.64828 9.56843 -8.30551 13.7086 -1.42109e-014 0 -64.5633 44.8227 -10.748 25.9307 -1.42109e-014 0 15.3401 -26.79 -109.176 23.5097 -1.42109e-014 0 -11.1757 -5.84898 0.0883522 -3.48695 19.5563 -0.329131 3.06165 10.812 -1.52259 -13.7086 1.42109e-014 0 41.1188 26.6823 28.5013 -25.9307 1.42109e-014 0 5.30493 -0.26059 111.535 -23.5097 -7.10543e-015 2.84217e-014 -22.8029 -8.53037 2.4141 9.00574 1.42109e-014 -1.42109e-014 3.93789 -14.4652 6.60048 -7.10543e-015 -37.3387 2.84217e-014 -1.80778 22.374 13.2934 -1.42109e-014 -36.155 0 5.6541 27.0455 -17.7719 -7.10543e-015 -5.85373 13.5086 -3.18055e-015 -3.18055e-015 -0 -9.00574 1.42109e-014 0 -10.6874 -32.0637 -11.8503 0 -37.3387 0 25.0502 62.628 -21.7474 -4.44089e-016 -36.155 1.42109e-014 18.9283 17.2661 -12.8536 0 -5.85373 13.5086 0 3.18055e-015 -0 
0 0 0 0 0 -0 11.0905 86.2008 -94.4178 -3.83698 6.04752 13.4281 0 7.3847 0 -1.76121 -0.704973 -3.02485 3.55271e-015 22.52 -1.42109e-014 4.05865 5.43128 -3.2066 0 22.4276 2.03887 4.16311 17.7789 -3.71682 0 12.608 -1.80115 -0.512969 -13.4573 -3.9375 3.70204 19.5563 -0.329131 2.66293 9.61476 -8.16363 13.7086 1.42109e-014 0 -64.5987 44.9386 -10.79 25.9307 0 0 15.164 -26.7418 -109.245 23.5097 1.42109e-014 1.42109e-014 -11.0577 -6.03798 0.202073 -3.48695 19.5563 -0.329131 3.04716 10.9467 -1.68319 -13.7086 0 0 41.0776 26.9631 28.5428 -25.9307 7.10543e-015 0 5.30387 -0.447315 111.401 -23.5097 0 0 -22.7804 -8.68304 2.36067 9.00574 0 0 4.23293 -13.7734 6.47869 7.10543e-015 -37.3387 0 -1.72252 21.0512 13.5371 1.42109e-014 -36.155 1.42109e-014 6.5295 29.1025 -18.643 0 -5.85373 13.5086 -1.59028e-015 3.18055e-015 -0 -9.00574 0 1.42109e-014 -10.4636 -32.2491 -11.7503 8.88178e-016 -37.3387 -7.10543e-015 24.6182 61.051 -21.4586 0 -36.155 0 18.9412 17.5234 -12.9995 -7.10543e-015 -5.85373 13.5086 3.18055e-015 0 3.18055e-015 
0 0 0 0 0 -0 11.0113 86.6187 -93.9039 -4.0603 6.01532 13.7114 3.55271e-015 7.3847 0 -1.63203 -0.790108 -3.04305 0 22.52 -1.42109e-014 4.13678 5.23489 -3.22097 3.55271e-015 22.4276 2.03887 4.11038 18.2485 -3.8495 0 12.608 -1.80115 -0.377919 -13.35 -4.02291 3.70204 19.5563 -0.329131 2.68102 9.64881 -8.03064 13.7086 1.42109e-014 2.84217e-014 -64.7399 45.0115 -10.6805 25.9307 0 -1.42109e-014 15.1595 -26.9124 -109.272 23.5097 -7.10543e-015 0 -11.4741 -6.21936 0.148413 -3.48695 19.5563 -0.329131 3.0649 10.966 -1.81483 -13.7086 1.42109e-014 0 41.1139 27.072 28.4425 -25.9307 0 0 5.44102 -0.358417 111.238 -23.5097 1.42109e-014 -2.84217e-014 -22.7133 -8.79906 2.50867 9.00574 1.42109e-014 -1.42109e-014 4.52486 -13.1357 6.38766 0 -37.3387 0 -1.60326 19.9036 13.6315 0 -36.155 1.42109e-014 6.69117 30.8593 -18.9111 0 -5.85373 13.5086 6.36111e-015 6.36111e-015 -0 -9.00574 0 0 -10.1432 -32.5173 -11.7763 1.77636e-015 -37.3387 -1.42109e-014 23.5764 59.7193 -20.994 8.88178e-016 -36.155 0 19.2262 17.7978 -13.0234 7.10543e-015 -5.85373 13.5086 -3.18055e-015 3.18055e-015 4.77083e-015 
0 0 0 0 0 -0 10.9459 86.9812 -93.3738 -4.24752 5.94809 13.9645 0 7.3847 1.42109e-014 -1.45803 -0.871847 -3.05806 0 22.52 0 4.09792 5.07766 -3.22876 0 22.4276 2.03887 4.15465 18.7109 -3.95809 0 12.608 -1.80115 -0.342332 -13.2676 -4.10734 3.70204 19.5563 -0.329131 2.74695 9.68647 -7.88339 13.7086 1.42109e-014 0 -64.7218 44.9993 -10.7202 25.9307 1.42109e-014 2.84217e-014 15.0267 -26.8465 -109.351 23.5097 7.10543e-015 0 -11.6006 -6.30944 0.141714 -3.48695 19.5563 -0.329131 3.1243 11.0043 -1.86357 -13.7086 -1.42109e-014 0 41.1664 27.1734 28.3068 -25.9307 7.10543e-015 2.84217e-014 5.48838 -0.342455 111.182 -23.5097 -1.42109e-014 0 -22.8699 -8.84763 2.50944 9.00574 1.42109e-014 1.42109e-014 4.77089 -12.4184 6.26634 -7.10543e-015 -37.3387 0 -1.44928 18.7605 13.6179 0 -36.155 1.42109e-014 6.92782 32.435 -19.2222 0 -5.85373 13.5086 -4.77083e-015 3.18055e-015 1.59028e-015 -9.00574 0 1.42109e-014 -9.93949 -32.639 -11.7042 0 -37.3387 1.42109e-014 22.966 58.1989 -20.4348 4.44089e-016 -36.155 1.42109e-014 18.8662 17.9169 -12.9168 0 -5.85373 13.5086 6.36111e-015 1.27222e-014 -4.77083e-015 
0 0 0 0 0 -0 10.874 87.2884 -92.8544 -4.44335 5.90201 14.2209 3.55271e-015 7.3847 0 -1.385 -0.998978 -3.08402 0 22.52 0 4.27323 5.02016 -3.25943 0 22.4276 2.03887 3.99696 19.0312 -4.05368 0 12.608 -1.80115 -0.190486 -13.1006 -4.15913 3.70204 19.5563 -0.329131 2.69767 9.65831 -7.71314 13.7086 0 0 -64.6762 44.8697 -10.7761 25.9307 0 0 14.8033 -26.6698 -109.545 23.5097 0 1.42109e-014 -11.7923 -6.35928 0.0849926 -3.48695 19.5563 -0.329131 3.05237 11.0945 -1.95405 -13.7086 -1.42109e-014 0 41.1947 27.0744 28.3484 -25.9307 0 0 5.64038 -0.11871 111.057 -23.5097 0 0 -22.7971 -8.8406 2.58132 9.00574 0 -1.42109e-014 5.0195 -11.8364 6.16177 0 -37.3387 0 -1.28683 17.8282 13.6775 -1.42109e-014 -36.155 1.42109e-014 7.04645 33.8521 -19.542 0 -5.85373 13.5086 -1.59028e-015 3.18055e-015 -0 -9.00574 0 0 -9.73862 -32.7834 -11.5727 8.88178e-016 -37.3387 0 22.4863 56.6927 -20.0035 -4.44089e-016 -36.155 1.42109e-014 18.8621 17.8431 -13.0642 -3.55271e-015 -5.85373 13.5086 -3.18055e-015 -6.36111e-015 4.77083e-015 
